<svg id="Capa_1" enable-background="new 0 0 512 512" height="512" viewBox="0 0 512 512" width="512" xmlns="http://www.w3.org/2000/svg"><g><path d="m414.5 414.5h-30v60l60-30c0-16.569-13.431-30-30-30z" fill="#894d40"/><path d="m384.5 414.5h-241.935c-16.569 0-30 13.431-30 30v15h301.935v-15c0-16.569-13.431-30-30-30z" fill="#995e49"/><path d="m234.5 157.5h90v77h-90z" fill="#995e49"/><path d="m234.5 142.5c-8.284 0-15 6.716-15 15l-30 38.5 30 38.5c0 8.284 6.716 15 15 15s15-6.716 15-15v-77c0-8.284-6.716-15-15-15z" fill="#b88567"/><path d="m219.5 157.5-30-2.886-30 41.386 30 41.386 30-2.886z" fill="#aa6f51"/><path d="m66.126 142.746c-1.688-.156-3.396-.246-5.126-.246-29.547 0-53.5 23.953-53.5 53.5s23.953 53.5 53.5 53.5c1.73 0 3.438-.09 5.126-.25 0 .004 123.374-11.864 123.374-11.864v-82.771z" fill="#b88567"/><path d="m414.5 112.5h60v167h-60z" fill="#ffbb6e"/><path d="m279.5 112.5h165v167h-165z" fill="#ffd478"/><path d="m414.5 279.5h60v60h-60z" fill="#894d40"/><path d="m279.5 279.5h165v60h-165z" fill="#995e49"/><path d="m414.5 52.5h60v60h-60z" fill="#894d40"/><path d="m279.5 52.5h165v60h-165z" fill="#995e49"/><path d="m474.5 97.5h-30v30h30c8.284 0 15-6.716 15-15s-6.716-15-15-15z" fill="#995e49"/><path d="m459.5 112.5c0-8.284-6.716-15-15-15h-165c-8.284 0-15 6.716-15 15s6.716 15 15 15h165c8.284 0 15-6.716 15-15z" fill="#aa6f51"/><path d="m474.5 264.5h-30v30h30c8.284 0 15-6.716 15-15s-6.716-15-15-15z" fill="#995e49"/><path d="m459.5 279.5c0-8.284-6.716-15-15-15h-165c-8.284 0-15 6.716-15 15s6.716 15 15 15h165c8.284 0 15-6.716 15-15z" fill="#aa6f51"/><path d="m444.5 444.5h-30l60 60h30c0-33.137-26.863-60-60-60z" fill="#995e49"/><path d="m414.5 444.5h-301.935c-33.137 0-60 26.863-60 60h421.935c0-33.137-26.863-60-60-60z" fill="#aa6f51"/><path d="m474.5 324.5h-30v60h30c16.569 0 30-13.431 30-30s-13.431-30-30-30z" fill="#aa6f51"/><path d="m474.5 354.5c0-16.569-13.431-30-30-30h-165c-16.569 0-30 13.431-30 30s13.431 30 30 30h165c16.569 0 30-13.431 30-30z" fill="#b88567"/><path d="m474.5 7.5h-30v60h30c16.569 0 30-13.431 30-30s-13.431-30-30-30z" fill="#aa6f51"/><path d="m474.5 37.5c0-16.569-13.431-30-30-30h-165c-16.569 0-30 13.431-30 30s13.431 30 30 30h165c16.569 0 30-13.431 30-30z" fill="#b88567"/><path d="m451.307 437.343c-3.351-17.265-18.577-30.343-36.807-30.343h-271.936c-18.23 0-33.456 13.078-36.807 30.343-34.035 3.424-60.693 32.235-60.693 67.157 0 4.142 3.358 7.5 7.5 7.5h451.936c4.142 0 7.5-3.358 7.5-7.5 0-34.922-26.658-63.733-60.693-67.157zm-308.743-15.343h271.936c9.778 0 18.114 6.271 21.21 15h-314.356c3.097-8.729 11.433-15 21.21-15zm-81.965 75c3.65-25.409 25.563-45 51.966-45h331.935c26.402 0 48.315 19.591 51.966 45z"/><path d="m482 317.755v-17.045c8.729-3.096 15-11.432 15-21.21s-6.271-18.114-15-21.21v-124.58c8.729-3.096 15-11.432 15-21.21s-6.271-18.114-15-21.21v-17.045c17.096-3.484 30-18.635 30-36.745 0-20.678-16.822-37.5-37.5-37.5h-195c-20.678 0-37.5 16.822-37.5 37.5 0 18.11 12.904 33.261 30 36.745v17.045c-8.729 3.096-15 11.432-15 21.21s6.271 18.114 15 21.21v16.29h-16.29c-3.096-8.729-11.432-15-21.21-15-9.548 0-17.72 5.98-20.982 14.39l-146.698-14.112c-1.988-.184-3.946-.278-5.82-.278-33.636 0-61 27.364-61 61s27.364 61 61 61c1.889 0 3.852-.095 5.834-.284.561-.053 146.684-14.106 146.684-14.106 3.262 8.41 11.434 14.39 20.982 14.39 9.778 0 18.114-6.271 21.21-15h16.29v16.29c-8.729 3.096-15 11.432-15 21.21s6.27 18.12 15 21.215v17.04c-17.096 3.484-30 18.635-30 36.745 0 20.678 16.822 37.5 37.5 37.5h195c20.678 0 37.5-16.822 37.5-37.5 0-18.11-12.904-33.261-30-36.745zm-270-90.068c-29.482 2.836-145.046 13.952-146.557 14.094-1.539.146-3.025.219-4.443.219-25.364 0-46-20.636-46-46s20.636-46 46-46c1.413 0 2.904.072 4.408.211l146.592 14.102zm30 6.813c0 4.136-3.364 7.5-7.5 7.5s-7.5-3.364-7.5-7.5v-77c0-4.136 3.364-7.5 7.5-7.5s7.5 3.364 7.5 7.5zm15-197c0-12.407 10.093-22.5 22.5-22.5h195c12.407 0 22.5 10.093 22.5 22.5s-10.093 22.5-22.5 22.5h-195c-12.407 0-22.5-10.093-22.5-22.5zm210 37.5v15h-180v-15zm-187.5 30h195c4.136 0 7.5 3.364 7.5 7.5s-3.364 7.5-7.5 7.5h-195c-4.136 0-7.5-3.364-7.5-7.5s3.364-7.5 7.5-7.5zm187.5 30v122h-180v-122zm-210 92v-62h15v62zm22.5 45h195c4.136 0 7.5 3.364 7.5 7.5s-3.364 7.5-7.5 7.5h-165c-4.142 0-7.5 3.358-7.5 7.5s3.358 7.5 7.5 7.5h157.5v15h-180v-22.5c0-4.142-3.358-7.5-7.5-7.5-4.136 0-7.5-3.364-7.5-7.5s3.364-7.5 7.5-7.5zm195 105h-195c-12.407 0-22.5-10.093-22.5-22.5s10.093-22.5 22.5-22.5h195c12.407 0 22.5 10.093 22.5 22.5s-10.093 22.5-22.5 22.5z"/></g></svg>